<svg width="110" height="99.29" xmlns="http://www.w3.org/2000/svg" xml:space="preserve" enable-background="new 0 0 452.027 99.29" version="1.1">

 <g>
  <title>Layer 1</title>
  <path id="svg_1" d="m91.498,5.031c-30.25,-11.22 -64.199,-2.884 -88.944,17.18l0.041,3.003c26.141,-16.487 55.599,-22.847 88.515,-11.949l0.388,-8.234z" fill="#BE202E"/>
  <path id="svg_2" d="m11.206,23.943l0,49.554l70.844,0l0,-58.913c-32.511,-7.061 -54.773,0.834 -70.844,9.359zm20.914,44.602l-9.769,0l0,-33.992l9.769,0l0,33.992zm13.421,-0.067l-9.769,0l0,-33.994l9.769,0l0,33.994zm13.292,0.067l-9.769,0l0,-33.992l9.769,0l0,33.992zm13.422,-0.067l-9.769,0l0,-33.994l9.769,0l0,33.994zm0.028,-39.618l-49.862,-0.116l-0.131,-4.907c15.435,-5.221 34.146,-8.661 49.993,-5.407l0,10.43z" fill="#BE202E"/>
  <rect id="svg_3" height="4.526" width="79.169" fill="#BE202E" y="75.708" x="7.043"/>
  <rect id="svg_4" height="4.526" width="85.848" fill="#BE202E" y="82.189" x="3.704"/>
  <rect id="svg_5" height="4.525" width="93.255" fill="#BE202E" y="88.67"/>
 </g>
</svg>